Coordinates
version=1
nRows=9
nColumns=61
inDegrees=no

Units are S.I. units (second, meters, Newtons, ...)
If the header above contains a line with 'inDegrees', this indicates whether rotational values are in degrees (yes) or radians (no).

endheader
time	pelvis_x	pelvis_y	pelvis_z	femur_r_x	femur_r_y	femur_r_z	tibia_r_x	tibia_r_y	tibia_r_z	talus_r_x	talus_r_y	talus_r_z	calcn_r_x	calcn_r_y	calcn_r_z	toes_r_x	toes_r_y	toes_r_z	femur_l_x	femur_l_y	femur_l_z	tibia_l_x	tibia_l_y	tibia_l_z	talus_l_x	talus_l_y	talus_l_z	calcn_l_x	calcn_l_y	calcn_l_z	toes_l_x	toes_l_y	toes_l_z	torso_x	torso_y	torso_z	humerus_r_x	humerus_r_y	humerus_r_z	ulna_r_x	ulna_r_y	ulna_r_z	radius_r_x	radius_r_y	radius_r_z	hand_r_x	hand_r_y	hand_r_z	humerus_l_x	humerus_l_y	humerus_l_z	ulna_l_x	ulna_l_y	ulna_l_z	radius_l_x	radius_l_y	radius_l_z	hand_l_x	hand_l_y	hand_l_z
9.2	0.528515	0.997738	-0.956256	0.597517	0.922427	-0.899443	0.640457	0.520968	-0.926808	0.679875	0.0603524	-0.870175	0.688809	0.0282042	-0.830924	0.699236	0.0207951	-1.00647	0.444004	0.924949	-0.921323	0.457607	0.520683	-0.943809	0.477173	0.0631854	-0.858715	0.46941	0.0294315	-0.820578	0.453118	0.027965	-0.995829	0.515577	1.06277	-0.857978	0.705175	1.44025	-0.918131	0.757458	1.09619	-0.875859	0.795735	1.08106	-0.882469	0.786575	0.889339	-1.06705	0.321423	1.43887	-0.911969	0.276941	1.10039	-0.832279	0.240039	1.08502	-0.844112	0.268045	0.96585	-1.08059
9.21	0.526342	0.997297	-0.956108	0.595112	0.921851	-0.899193	0.639404	0.520669	-0.930552	0.679397	0.0605631	-0.870297	0.688614	0.0285459	-0.831004	0.699023	0.0208862	-1.00654	0.441617	0.92477	-0.92115	0.456416	0.520551	-0.943596	0.476964	0.0630436	-0.858785	0.469176	0.0292702	-0.82067	0.452988	0.0278702	-0.995931	0.513533	1.06245	-0.857895	0.702683	1.44024	-0.917535	0.755765	1.09626	-0.875663	0.794113	1.08124	-0.882133	0.786291	0.889688	-1.06695	0.318935	1.4384	-0.911333	0.274613	1.10004	-0.831036	0.237729	1.08467	-0.842914	0.265888	0.966156	-1.07971
9.22	0.524245	0.996625	-0.955887	0.592735	0.921125	-0.898706	0.638325	0.520313	-0.935122	0.678724	0.0608315	-0.870528	0.688277	0.0290042	-0.831161	0.698765	0.020923	-1.00667	0.439271	0.924442	-0.920818	0.455151	0.520272	-0.943356	0.476701	0.0627727	-0.85875	0.468926	0.0289559	-0.820672	0.452854	0.0276829	-0.995944	0.511535	1.06208	-0.857859	0.700181	1.44021	-0.916899	0.754142	1.09632	-0.875403	0.792566	1.08143	-0.881724	0.786161	0.890054	-1.06677	0.316436	1.43785	-0.910677	0.272307	1.0996	-0.829823	0.235448	1.08422	-0.84177	0.263885	0.966491	-1.07892
9.23	0.522278	0.995655	-0.955565	0.590412	0.920189	-0.897916	0.637152	0.51987	-0.940476	0.677914	0.061152	-0.870875	0.687911	0.0295835	-0.83141	0.698384	0.0208946	-1.0069	0.436995	0.92394	-0.920288	0.453708	0.519811	-0.943058	0.476231	0.0623603	-0.858444	0.468541	0.0283896	-0.820485	0.452723	0.0276362	-0.995783	0.509645	1.06162	-0.857871	0.697761	1.44014	-0.916157	0.752567	1.09633	-0.875014	0.791061	1.08157	-0.881193	0.786041	0.890475	-1.06657	0.314018	1.43721	-0.910049	0.27002	1.09907	-0.828646	0.233197	1.08369	-0.840703	0.262083	0.967006	-1.07832
9.24	0.520409	0.994798	-0.955093	0.587989	0.919126	-0.897064	0.635815	0.51946	-0.946653	0.677148	0.0616904	-0.871375	0.687698	0.0304725	-0.831775	0.697873	0.0208604	-1.00723	0.434635	0.923722	-0.919711	0.452381	0.519649	-0.942728	0.476087	0.0622224	-0.858307	0.468492	0.0281692	-0.820403	0.452836	0.0276172	-0.995717	0.508008	1.06118	-0.857651	0.695494	1.4401	-0.915351	0.750977	1.09638	-0.874385	0.789536	1.08173	-0.880413	0.785878	0.891075	-1.06628	0.311753	1.43649	-0.909456	0.26765	1.0985	-0.827543	0.230876	1.08313	-0.839772	0.260497	0.967699	-1.0779
9.25	0.518573	0.993957	-0.954529	0.585463	0.917901	-0.896202	0.634359	0.519047	-0.953185	0.676506	0.0623697	-0.87196	0.687634	0.0315975	-0.83217	0.697268	0.0206423	-1.00758	0.432195	0.923601	-0.919178	0.451133	0.519593	-0.94225	0.476054	0.062152	-0.858258	0.468522	0.0280532	-0.820382	0.452962	0.0275846	-0.995705	0.506471	1.06063	-0.857253	0.693287	1.43996	-0.914463	0.749375	1.09634	-0.873495	0.787992	1.08178	-0.87938	0.785661	0.891784	-1.06594	0.309549	1.43562	-0.908879	0.265191	1.09778	-0.826456	0.228479	1.08245	-0.838909	0.25911	0.968393	-1.07758
9.26	0.516737	0.992968	-0.953967	0.58289	0.916493	-0.895349	0.632845	0.518613	-0.959934	0.675946	0.0631438	-0.872654	0.68763	0.0328561	-0.832653	0.696594	0.0203532	-1.00799	0.429721	0.923382	-0.918656	0.449833	0.519437	-0.941651	0.47582	0.0619658	-0.85815	0.468313	0.0277886	-0.82034	0.452883	0.0275945	-0.995674	0.50497	1.05993	-0.856849	0.69109	1.43968	-0.913521	0.747816	1.09618	-0.872497	0.786492	1.08172	-0.878242	0.785522	0.8925	-1.06561	0.307356	1.43457	-0.908383	0.262599	1.09692	-0.825408	0.225962	1.08163	-0.838131	0.25786	0.969051	-1.07733
9.27	0.514808	0.992053	-0.953251	0.580381	0.915247	-0.894414	0.63115	0.51855	-0.967186	0.675373	0.0643668	-0.873965	0.68766	0.0345697	-0.833776	0.695615	0.0204779	-1.00904	0.427294	0.923084	-0.91796	0.448562	0.519214	-0.941013	0.475464	0.061679	-0.858155	0.467931	0.0274307	-0.820415	0.452702	0.0275214	-0.995767	0.503329	1.05925	-0.856256	0.688866	1.43934	-0.912552	0.746327	1.09597	-0.871368	0.785061	1.08162	-0.87699	0.785436	0.8933	-1.06526	0.305134	1.43355	-0.907967	0.259947	1.09606	-0.82458	0.223393	1.08081	-0.837584	0.256645	0.969715	-1.0773
9.28	0.512925	0.991168	-0.952455	0.577993	0.914088	-0.893416	0.629232	0.518771	-0.974725	0.674884	0.0659112	-0.875922	0.687844	0.0365929	-0.835592	0.694255	0.0209103	-1.01079	0.424988	0.922714	-0.917215	0.447402	0.518921	-0.940254	0.475114	0.061297	-0.858156	0.467522	0.0269821	-0.820488	0.452545	0.0273643	-0.995862	0.501653	1.05855	-0.855564	0.686703	1.43893	-0.911509	0.744964	1.09572	-0.870116	0.783754	1.08148	-0.875646	0.785382	0.894231	-1.06497	0.302972	1.43255	-0.907598	0.257297	1.09518	-0.823983	0.220835	1.07997	-0.837291	0.255606	0.970296	-1.07744
